<?xml version="1.0" encoding="utf-8"?>
<!-- Generator: Adobe Illustrator 16.0.0, SVG Export Plug-In . SVG Version: 6.00 Build 0)  -->
<!DOCTYPE svg PUBLIC "-//W3C//DTD SVG 1.1//EN" "http://www.w3.org/Graphics/SVG/1.1/DTD/svg11.dtd">
<svg version="1.1" id="Layer_1" xmlns="http://www.w3.org/2000/svg" xmlns:xlink="http://www.w3.org/1999/xlink" x="0px" y="0px"
	 width="424px" height="399.56px" viewBox="0 0 424 399.56" enable-background="new 0 0 424 399.56" xml:space="preserve">
<g>
	<path fill="#70E49C" d="M196.239,174.271c-0.339-0.399-0.654-0.809-0.984-1.214H71.547v46.987h204.881
		c-7.457-2.792-13.292-4.992-17.448-6.591C229.296,201.615,208.385,188.551,196.239,174.271z"/>
	<path fill="#70E49C" d="M206.241,50.379c7.681-7.156,16.424-12.826,26.182-17.061H30.744v46.987h154.632
		C190.076,68.949,197.022,58.97,206.241,50.379z"/>
	<path fill="#999999" d="M383.664,236.402c-2.734-6.534-6.318-12.427-10.78-17.66c-7.394-8.666-18.613-16.895-33.619-24.687
		c-8.381-4.356-17.929-8.574-28.687-12.654c-4.413-1.704-10.671-3.98-18.779-6.829c-1.403-0.511-2.763-1.013-4.108-1.516
		c-22.962-8.533-37.745-15.35-44.327-20.46c-7.113-5.689-12.344-11.663-15.683-17.924c-3.343-6.258-5.013-13.083-5.013-20.483
		c0-13.752,3.805-25.043,11.411-33.883c1.127-1.314,2.335-2.573,3.632-3.779c9.013-8.37,20.837-12.949,35.424-13.798
		c1.644-0.098,3.293-0.178,5.01-0.178c17.921,0,32.93,4.875,45.024,14.616c12.088,9.744,20.696,23.935,25.817,42.568l6.02-1.75
		l25.56-7.422c-7.397-25.034-19.597-44.169-36.594-57.399c-17-13.228-37.733-19.844-62.2-19.844c-2.944,0-5.813,0.104-8.636,0.276
		c-24.03,1.443-43.599,9.021-58.685,22.77c-7.618,6.944-13.5,14.932-17.674,23.941c-5.059,10.917-7.609,23.344-7.609,37.294
		c0,19.066,5.443,34.856,16.323,47.372c2.387,2.749,5.179,5.44,8.324,8.085c11.187,9.406,27.137,18.166,47.902,26.268
		c4.551,1.708,11.308,4.198,20.269,7.469c13.066,4.726,24.102,9.139,33.146,13.25c8.384,3.81,15.061,7.362,19.987,10.645
		c7.11,4.843,12.444,10.886,16.001,18.139c2.31,4.717,3.859,9.988,4.668,15.786c0.434,3.122,0.666,6.385,0.666,9.819
		c0,16.642-5.974,29.978-17.924,40.008c-11.947,10.025-27.949,15.041-48.008,15.041c-18.067,0-33.998-5.793-47.795-17.388
		c-13.802-11.591-23.545-27.487-29.232-47.689l-33.074,10.883c2.025,6.513,4.341,12.636,6.917,18.403
		c8.459,18.925,19.872,33.854,34.262,44.754c11.614,8.797,25.06,14.869,40.318,18.226c9.414,2.066,19.511,3.11,30.311,3.11
		c13.178,0,25.186-1.599,36.038-4.774c13.512-3.955,25.221-10.355,35.123-19.23c17.85-16.002,26.778-37.16,26.778-63.479
		C390.166,258.701,387.991,246.739,383.664,236.402z"/>
	<path fill="#70E49C" d="M186.983,312.798h-74.632v46.984h124.431c-6.972-3.197-13.486-7.07-19.531-11.649
		C205.203,339.006,195.135,327.196,186.983,312.798z"/>
</g>
</svg>
