<?xml version="1.0" encoding="utf-8"?>
<!-- Generator: Adobe Illustrator 16.0.0, SVG Export Plug-In . SVG Version: 6.00 Build 0)  -->
<!DOCTYPE svg PUBLIC "-//W3C//DTD SVG 1.1//EN" "http://www.w3.org/Graphics/SVG/1.1/DTD/svg11.dtd">
<svg version="1.1" id="Layer_1" xmlns="http://www.w3.org/2000/svg" xmlns:xlink="http://www.w3.org/1999/xlink" x="0px" y="0px"
	 width="1008.81px" height="595.28px" viewBox="0 0 1008.81 595.28" enable-background="new 0 0 1008.81 595.28"
	 xml:space="preserve">
<g>
	<g>
		<path fill="#999999" stroke="#999999" stroke-width="8.1036" stroke-miterlimit="10" d="M28.657,498.022l17.394-5.724
			c2.991,10.625,8.114,18.981,15.368,25.075c7.254,6.099,15.632,9.148,25.134,9.148c10.546,0,18.961-2.638,25.245-7.914
			c6.282-5.271,9.427-12.281,9.427-21.034c0-5.165-0.939-9.649-2.807-13.464c-1.871-3.814-4.673-6.995-8.413-9.538
			c-5.387-3.593-14.698-7.776-27.94-12.567c-4.711-1.72-8.262-3.028-10.657-3.925c-13.986-5.461-23.841-11.48-29.565-18.064
			c-5.719-6.584-8.583-14.883-8.583-24.907c0-13.39,4.432-24.126,13.295-32.203c8.869-8.077,20.665-12.118,35.4-12.118
			c12.868,0,23.767,3.482,32.705,10.436c8.936,6.959,15.351,17.02,19.244,30.183l-16.606,4.822
			c-2.691-9.797-7.217-17.258-13.575-22.38c-6.357-5.123-14.25-7.687-23.672-7.687c-8.905,0-15.991,2.447-21.261,7.349
			c-5.276,4.901-7.914,11.501-7.914,19.8c0,3.894,0.881,7.481,2.638,10.773s4.506,6.431,8.246,9.422
			c3.667,2.844,12.155,6.695,25.472,11.56c4.263,1.498,7.555,2.69,9.871,3.588c15.78,5.987,26.705,12.529,32.761,19.636
			s9.09,16.492,9.09,28.162c0,13.839-4.696,24.965-14.081,33.38c-9.39,8.415-21.862,12.62-37.42,12.62
			c-14.883,0-27.265-3.735-37.136-11.217C40.438,523.753,33.22,512.685,28.657,498.022z"/>
		<path fill="#999999" stroke="#999999" stroke-width="8.1036" stroke-miterlimit="10" d="M242.282,505.873l12.229,7.634
			c-4.711,9.576-10.995,16.661-18.845,21.262c-7.855,4.601-17.579,6.9-29.175,6.9c-15.632,0-27.582-5.313-35.843-15.933
			c-8.267-10.62-12.398-26.067-12.398-46.343c0-19.293,4.168-34.461,12.509-45.492c8.341-11.032,19.8-16.551,34.388-16.551
			c14.809,0,26.311,5.313,34.503,15.934c8.188,10.62,12.282,25.466,12.282,44.543v5.049h-76.52v3.925
			c0,12.42,2.976,22.29,8.921,29.624c5.946,7.328,13.86,10.994,23.73,10.994c7.555,0,14.266-1.852,20.138-5.555
			C234.073,518.16,238.768,512.832,242.282,505.873z M175.638,468.626h58.566c-0.148-11.443-2.823-20.475-8.019-27.096
			c-5.202-6.621-12.14-9.93-20.813-9.93c-8.979,0-16.049,3.234-21.208,9.702C179.004,447.776,176.161,456.882,175.638,468.626z"/>
		<path fill="#999999" stroke="#999999" stroke-width="8.1036" stroke-miterlimit="10" d="M278.864,539.648V419.482h15.369v18.175
			c6.584-6.953,13.089-12.076,19.525-15.368c6.431-3.292,13.163-4.938,20.195-4.938c10.019,0,17.743,2.918,23.166,8.753
			c5.424,5.835,8.135,14.022,8.135,24.569v88.976h-16.271v-82.692c0-8.974-1.514-15.405-4.542-19.299
			c-3.028-3.888-7.95-5.835-14.756-5.835c-5.983,0-11.818,1.515-17.5,4.548c-5.688,3.028-11.295,7.57-16.83,13.633v89.646H278.864z"
			/>
		<path fill="#999999" stroke="#999999" stroke-width="8.1036" stroke-miterlimit="10" d="M449.625,525.172V539.2
			c-2.469,0.823-5.144,1.435-8.019,1.852c-2.881,0.406-6.115,0.617-9.708,0.617c-9.053,0-15.875-1.946-20.475-5.835
			c-4.601-3.888-6.901-9.723-6.901-17.505v-84.597h-17.837v-14.25h17.837v-38.819h17.505v38.819h27.376v14.25h-27.376V510.7
			c0,6.885,1.082,11.316,3.25,13.295c2.168,1.984,6.357,2.976,12.567,2.976c2.991,0,6.732-0.564,11.222-1.683L449.625,525.172z"/>
		<path fill="#999999" stroke="#999999" stroke-width="8.1036" stroke-miterlimit="10" d="M472.405,539.648V419.482h16.94v27.376
			c4.11-9.871,8.995-17.125,14.641-21.768c5.645-4.638,12.361-6.954,20.143-6.954c1.044,0,1.831,0.017,2.353,0.053
			c0.522,0.043,1.013,0.096,1.461,0.169l0.111,16.498h-2.131c-8.23,0-15.469,3.233-21.71,9.701
			c-6.247,6.474-11.206,15.875-14.867,28.221v66.87H472.405z"/>
		<path fill="#999999" stroke="#999999" stroke-width="8.1036" stroke-miterlimit="10" d="M582.02,537.628l-43.309-118.146h17.057
			l34.894,96.04l31.301-96.04h16.94l-41.062,122.187c-5.613,16.45-11.575,27.545-17.896,33.264
			c-6.325,5.725-14.909,8.584-25.751,8.584c-1.873,0-3.703-0.111-5.497-0.338c-1.794-0.222-3.519-0.559-5.16-1.008l0.111-15.373
			c1.72,0.374,3.382,0.654,4.991,0.844c1.609,0.185,3.049,0.279,4.321,0.279c8.225,0,14.493-2.242,18.792-6.731
			C576.053,556.7,579.477,548.85,582.02,537.628z"/>
		<path fill="#999999" stroke="#999999" stroke-width="8.1036" stroke-miterlimit="10" d="M697.261,539.648V419.482h16.94v27.376
			c4.115-9.871,8.995-17.125,14.646-21.768c5.645-4.638,12.356-6.954,20.138-6.954c1.044,0,1.831,0.017,2.358,0.053
			c0.522,0.043,1.008,0.096,1.456,0.169l0.111,16.498h-2.132c-8.225,0-15.463,3.233-21.709,9.701
			c-6.247,6.474-11.201,15.875-14.867,28.221v66.87H697.261z"/>
		<path fill="#999999" stroke="#999999" stroke-width="8.1036" stroke-miterlimit="10" d="M857.032,419.482v120.166h-15.146v-18.175
			c-6.579,6.953-13.126,12.061-19.631,15.311c-6.51,3.255-13.316,4.885-20.422,4.885c-9.95,0-17.632-2.901-23.055-8.699
			c-5.423-5.793-8.135-14.002-8.135-24.628v-88.859h16.492v82.692c0,8.974,1.514,15.39,4.542,19.24
			c3.034,3.852,7.951,5.777,14.756,5.777c5.909,0,11.67-1.478,17.278-4.432c5.608-2.954,11.18-7.497,16.719-13.633v-89.646H857.032z
			"/>
		<path fill="#999999" stroke="#999999" stroke-width="8.1036" stroke-miterlimit="10" d="M894.96,539.648V419.482h15.368v18.175
			c6.584-6.953,13.089-12.076,19.525-15.368c6.432-3.292,13.163-4.938,20.196-4.938c10.019,0,17.743,2.918,23.166,8.753
			s8.135,14.022,8.135,24.569v88.976H965.08v-82.692c0-8.974-1.514-15.405-4.542-19.299c-3.028-3.888-7.951-5.835-14.756-5.835
			c-5.982,0-11.817,1.515-17.5,4.548c-5.688,3.028-11.295,7.57-16.83,13.633v89.646H894.96z"/>
	</g>
	<path fill="#70E49C" d="M444.386,170.431c-0.312-0.364-0.602-0.744-0.902-1.113H329.749v43.198h188.361
		c-6.854-2.569-12.219-4.59-16.039-6.062C474.779,195.57,455.555,183.562,444.386,170.431z"/>
	<path fill="#70E49C" d="M453.582,56.532c7.064-6.579,15.099-11.792,24.073-15.685H292.238v43.198h142.161
		C438.72,73.604,445.108,64.43,453.582,56.532z"/>
	<path fill="#999999" d="M616.697,227.551c-2.511-6.004-5.809-11.422-9.908-16.233c-6.8-7.966-17.115-15.532-30.911-22.696
		c-7.703-4.004-16.481-7.882-26.374-11.633c-4.057-1.567-9.808-3.661-17.262-6.278c-1.293-0.47-2.543-0.934-3.777-1.393
		c-21.114-7.845-34.704-14.113-40.755-18.813c-6.537-5.228-11.348-10.72-14.419-16.476c-3.07-5.756-4.605-12.029-4.605-18.834
		c0-12.641,3.498-23.023,10.488-31.148c1.04-1.208,2.147-2.369,3.34-3.477c8.288-7.692,19.156-11.902,32.567-12.683
		c1.514-0.09,3.028-0.164,4.605-0.164c16.477,0,30.278,4.479,41.394,13.437c11.116,8.958,19.03,22.005,23.736,39.136l5.535-1.609
		l23.498-6.827c-6.801-23.013-18.017-40.607-33.644-52.768s-34.688-18.244-57.184-18.244c-2.707,0-5.344,0.095-7.94,0.253
		c-22.09,1.324-40.08,8.293-53.95,20.934c-7.006,6.384-12.414,13.728-16.249,22.011c-4.653,10.034-6.996,21.461-6.996,34.287
		c0,17.526,5.002,32.045,15.004,43.551c2.195,2.527,4.764,5.001,7.655,7.434c10.283,8.647,24.949,16.698,44.037,24.147
		c4.184,1.572,10.398,3.862,18.634,6.869c12.013,4.342,22.158,8.399,30.473,12.182c7.708,3.503,13.849,6.769,18.375,9.786
		c6.537,4.453,11.443,10.008,14.714,16.677c2.121,4.337,3.545,9.18,4.289,14.514c0.401,2.87,0.612,5.867,0.612,9.027
		c0,15.3-5.492,27.561-16.476,36.783c-10.984,9.217-25.698,13.827-44.137,13.827c-16.613,0-31.259-5.328-43.942-15.985
		c-12.688-10.657-21.646-25.271-26.875-43.847l-30.41,10.008c1.862,5.988,3.994,11.617,6.363,16.919
		c7.776,17.399,18.27,31.121,31.496,41.145c10.678,8.088,23.04,13.67,37.067,16.756c8.658,1.898,17.938,2.859,27.867,2.859
		c12.119,0,23.156-1.473,33.132-4.39c12.424-3.635,23.187-9.522,32.293-17.679c16.408-14.713,24.617-34.165,24.617-58.359
		C622.675,248.053,620.675,237.058,616.697,227.551z"/>
	<path fill="#70E49C" d="M435.876,297.788h-68.611v43.197h114.395c-6.41-2.938-12.398-6.5-17.954-10.71
		C452.626,321.881,443.373,311.024,435.876,297.788z"/>
</g>
</svg>
