<?xml version="1.0" encoding="utf-8"?>
<!-- Generator: Adobe Illustrator 16.0.0, SVG Export Plug-In . SVG Version: 6.00 Build 0)  -->
<!DOCTYPE svg PUBLIC "-//W3C//DTD SVG 1.1//EN" "http://www.w3.org/Graphics/SVG/1.1/DTD/svg11.dtd">
<svg version="1.1" id="Layer_1" xmlns="http://www.w3.org/2000/svg" xmlns:xlink="http://www.w3.org/1999/xlink" x="0px" y="0px"
	 width="2224px" height="595.28px" viewBox="0 0 2224 595.28" enable-background="new 0 0 2224 595.28" xml:space="preserve">
<g>
	<g>
		<g>
			<path fill="#999999" stroke="#999999" stroke-width="13.3188" stroke-miterlimit="10" d="M782.083,435.784l23.26,14.511
				c-8.961,18.209-20.915,31.685-35.851,40.434s-33.432,13.123-55.478,13.123c-29.733,0-52.46-10.097-68.177-30.301
				c-15.721-20.195-23.577-49.572-23.577-88.125c0-36.704,7.93-65.544,23.793-86.526c15.859-20.982,37.659-31.474,65.397-31.474
				c28.168,0,50.041,10.102,65.614,30.299c15.578,20.201,23.369,48.439,23.369,84.71v9.607H654.908v7.466
				c0,23.616,5.654,42.394,16.965,56.332c11.307,13.943,26.352,20.91,45.128,20.91c14.368,0,27.132-3.52,38.3-10.561
				C766.47,459.148,775.393,449.012,782.083,435.784z M655.333,364.94h111.385c-0.286-21.764-5.367-38.941-15.257-51.532
				c-9.885-12.588-23.078-18.883-39.579-18.883c-17.069,0-30.514,6.155-40.33,18.455C661.736,325.288,656.33,342.608,655.333,364.94
				z"/>
			<path fill="#999999" stroke="#999999" stroke-width="13.3188" stroke-miterlimit="10" d="M851.642,500.011V271.479h29.235v34.567
				c12.517-13.228,24.891-22.972,37.13-29.232c12.23-6.259,25.033-9.389,38.408-9.389c19.06,0,33.748,5.547,44.063,16.644
				c10.31,11.095,15.469,26.672,15.469,46.729v169.212h-30.938V342.747c0-17.069-2.883-29.3-8.645-36.7
				c-5.758-7.395-15.114-11.095-28.06-11.095c-11.38,0-22.475,2.881-33.284,8.641c-10.813,5.762-21.483,14.407-32.01,25.927v170.491
				H851.642z"/>
			<path fill="#999999" stroke="#999999" stroke-width="13.3188" stroke-miterlimit="10" d="M1176.408,472.484v26.672
				c-4.691,1.565-9.781,2.74-15.253,3.521c-5.48,0.78-11.628,1.175-18.461,1.175c-17.212,0-30.19-3.698-38.939-11.094
				c-8.75-7.396-13.124-18.496-13.124-33.289v-160.89h-33.926v-27.099h33.926v-73.83h33.291v73.83h52.061v27.099h-52.061v146.379
				c0,13.089,2.055,21.517,6.182,25.289c4.128,3.768,12.097,5.653,23.898,5.653c5.688,0,12.807-1.066,21.339-3.199L1176.408,472.484
				z"/>
			<path fill="#999999" stroke="#999999" stroke-width="13.3188" stroke-miterlimit="10" d="M1219.729,500.011V271.479h32.218
				v52.065c7.821-18.777,17.108-32.575,27.852-41.396c10.734-8.818,23.498-13.23,38.3-13.23c1.986,0,3.486,0.037,4.483,0.106
				c0.988,0.074,1.916,0.18,2.774,0.321l0.208,31.368h-4.049c-15.651,0-29.421,6.152-41.292,18.456
				c-11.88,12.305-21.305,30.193-28.276,53.666v127.175H1219.729z"/>
			<path fill="#999999" stroke="#999999" stroke-width="13.3188" stroke-miterlimit="10" d="M1428.204,496.169l-82.367-224.689
				h32.43l66.369,182.656l59.526-182.656h32.223l-78.101,232.372c-10.666,31.295-22.008,52.387-34.034,63.27
				c-12.019,10.882-28.346,16.318-48.966,16.318c-3.556,0-7.041-0.208-10.458-0.637c-3.416-0.43-6.685-1.066-9.815-1.921
				l0.217-29.23c3.27,0.707,6.434,1.24,9.495,1.596c3.052,0.355,5.792,0.537,8.211,0.537c15.651,0,27.558-4.271,35.743-12.807
				C1416.854,532.445,1423.365,517.509,1428.204,496.169z"/>
			<path fill="#999999" stroke="#999999" stroke-width="13.3188" stroke-miterlimit="10" d="M1642.966,500.011V271.479h32.222
				v52.065c7.821-18.777,17.099-32.575,27.843-41.396c10.743-8.818,23.507-13.23,38.3-13.23c1.995,0,3.486,0.037,4.483,0.106
				c0.997,0.074,1.925,0.18,2.774,0.321l0.217,31.368h-4.058c-15.651,0-29.413,6.152-41.292,18.456
				c-11.88,12.305-21.305,30.193-28.268,53.666v127.175H1642.966z"/>
			<path fill="#999999" stroke="#999999" stroke-width="13.3188" stroke-miterlimit="10" d="M1946.818,271.479v228.531h-28.806
				v-34.567c-12.521,13.232-24.964,22.936-37.338,29.126c-12.382,6.191-25.328,9.282-38.838,9.282c-18.92,0-33.54-5.51-43.85-16.54
				c-10.318-11.021-15.469-26.633-15.469-46.832v-169h31.363v157.259c0,17.073,2.879,29.273,8.645,36.601
				c5.758,7.327,15.114,10.986,28.06,10.986c11.238,0,22.189-2.81,32.864-8.428c10.665-5.619,21.261-14.26,31.788-25.927V271.479
				H1946.818z"/>
			<path fill="#999999" stroke="#999999" stroke-width="13.3188" stroke-miterlimit="10" d="M2018.944,500.011V271.479h29.23v34.567
				c12.521-13.228,24.895-22.972,37.13-29.232c12.234-6.259,25.033-9.389,38.413-9.389c19.059,0,33.748,5.547,44.058,16.644
				c10.31,11.095,15.47,26.672,15.47,46.729v169.212h-30.938V342.747c0-17.069-2.879-29.3-8.646-36.7
				c-5.758-7.395-15.113-11.095-28.06-11.095c-11.377,0-22.476,2.881-33.28,8.641c-10.813,5.762-21.486,14.407-32.014,25.927
				v170.491H2018.944z"/>
		</g>
	</g>
	<g>
		<path fill="#70E49C" d="M289.364,223.513c-0.512-0.601-0.988-1.223-1.487-1.832H100.95v70.997h309.584
			c-11.268-4.218-20.086-7.542-26.364-9.958C339.314,264.831,307.717,245.089,289.364,223.513z"/>
		<path fill="#70E49C" d="M304.478,36.31c11.606-10.815,24.817-19.382,39.562-25.781H39.294v70.997H272.95
			C280.052,64.368,290.548,49.287,304.478,36.31z"/>
		<path fill="#999999" d="M572.571,317.393c-4.132-9.867-9.547-18.772-16.289-26.681c-11.173-13.098-28.125-25.532-50.8-37.306
			c-12.664-6.579-27.093-12.954-43.347-19.12c-6.668-2.575-16.124-6.013-28.376-10.316c-2.12-0.774-4.175-1.533-6.208-2.289
			c-34.697-12.896-57.034-23.2-66.98-30.919c-10.748-8.595-18.651-17.624-23.698-27.084c-5.051-9.456-7.574-19.772-7.574-30.951
			c0-20.778,5.749-37.841,17.243-51.201c1.704-1.981,3.529-3.887,5.489-5.708c13.618-12.649,31.485-19.568,53.527-20.85
			c2.484-0.145,4.977-0.267,7.57-0.267c27.08,0,49.759,7.364,68.034,22.083c18.266,14.726,31.272,36.167,39.011,64.325l9.096-2.645
			l38.621-11.218c-11.177-37.83-29.611-66.741-55.295-86.732c-25.688-19.989-57.017-29.985-93.986-29.985
			c-4.448,0-8.784,0.158-13.05,0.414c-36.31,2.183-65.879,13.633-88.675,34.407c-11.511,10.494-20.398,22.564-26.707,36.176
			c-7.644,16.499-11.498,35.279-11.498,56.358c0,28.808,8.224,52.666,24.665,71.578c3.607,4.153,7.826,8.222,12.578,12.22
			c16.904,14.212,41.006,27.446,72.382,39.69c6.876,2.58,17.086,6.341,30.626,11.285c19.744,7.141,36.419,13.809,50.084,20.021
			c12.668,5.758,22.757,11.125,30.202,16.087c10.743,7.314,18.803,16.445,24.179,27.41c3.49,7.127,5.832,15.087,7.054,23.854
			c0.654,4.713,1.006,9.643,1.006,14.832c0,25.15-9.027,45.303-27.084,60.46c-18.053,15.148-42.232,22.727-72.542,22.727
			c-27.301,0-51.372-8.758-72.222-26.277c-20.854-17.516-35.578-41.535-44.17-72.062l-49.976,16.444
			c3.061,9.842,6.56,19.094,10.453,27.813c12.781,28.594,30.028,51.151,51.771,67.626c17.551,13.293,37.867,22.467,60.923,27.535
			c14.225,3.126,29.482,4.704,45.801,4.704c19.914,0,38.058-2.419,54.455-7.214c20.416-5.975,38.109-15.651,53.071-29.058
			c26.972-24.184,40.464-56.153,40.464-95.919C582.396,351.089,579.109,333.019,572.571,317.393z"/>
		<path fill="#70E49C" d="M275.378,432.831H162.605v70.999h188.02c-10.535-4.834-20.377-10.687-29.512-17.603
			C302.909,472.433,287.695,454.587,275.378,432.831z"/>
	</g>
</g>
</svg>
